<svg xmlns="http://www.w3.org/2000/svg" width="1820" height="920" viewBox="0 0 1820 920">
<rect x="0" y="0" width="1820" height="920" fill="#ffffff"/>
<style>
    .title { font: 700 20px Arial, sans-serif; fill: #1f2937; }
    .note { font: 400 14px Arial, sans-serif; fill: #374151; }
    .table-bg { fill: #f8f7ff; stroke: #8f7de8; stroke-width: 1.5; }
    .table-header { fill: #ece8ff; stroke: #8f7de8; stroke-width: 1.5; }
    .row-line { stroke: #d8d2f7; stroke-width: 1; }
    .table-name { font: 700 20px Arial, sans-serif; fill: #1f2937; }
    .type { font: 600 13px Consolas, monospace; fill: #374151; }
    .field { font: 500 13px Consolas, monospace; fill: #111827; }
    .rel { stroke: #374151; stroke-width: 1.6; fill: none; }
    .card { stroke: #374151; stroke-width: 1.6; fill: none; stroke-linecap: round; }
    .card-circle { stroke: #374151; stroke-width: 1.6; fill: #ffffff; }
    .rel-label-bg { fill: #ffffff; fill-opacity: 0.94; }
    .rel-label { font: 600 14px Arial, sans-serif; fill: #374151; }
</style>
<text class="title" x="40" y="42">TechShop 2024 - Bloco 7 (Q6)</text>
<text class="note" x="40" y="68">Modelo estrela simples baseado em data/raw/ecommerce_vendas.csv</text>

<g id="rel_id_tempo">
<path class="rel" d="M 195 344 C 195 392, 560 496, 775 560"/>
<line class="card" x1="188" y1="354" x2="202" y2="354"/>
<line class="card" x1="188" y1="360" x2="202" y2="360"/>
<rect class="rel-label-bg" x="276" y="444" width="88" height="24" rx="4" ry="4"/>
<text class="rel-label" x="288" y="460">id_tempo</text>
<circle class="card-circle" cx="759" cy="560" r="4"/>
<line class="card" x1="763" y1="560" x2="769" y2="560"/>
<line class="card" x1="769" y1="560" x2="775" y2="553"/>
<line class="card" x1="769" y1="560" x2="775" y2="560"/>
<line class="card" x1="769" y1="560" x2="775" y2="567"/>
</g>

<g id="rel_id_cliente">
<path class="rel" d="M 530 216 C 530 332, 628 472, 775 592"/>
<line class="card" x1="523" y1="226" x2="537" y2="226"/>
<line class="card" x1="523" y1="232" x2="537" y2="232"/>
<rect class="rel-label-bg" x="598" y="404" width="92" height="24" rx="4" ry="4"/>
<text class="rel-label" x="610" y="420">id_cliente</text>
<circle class="card-circle" cx="759" cy="592" r="4"/>
<line class="card" x1="763" y1="592" x2="769" y2="592"/>
<line class="card" x1="769" y1="592" x2="775" y2="585"/>
<line class="card" x1="769" y1="592" x2="775" y2="592"/>
<line class="card" x1="769" y1="592" x2="775" y2="599"/>
</g>

<g id="rel_id_localidade">
<path class="rel" d="M 910 216 L 910 470"/>
<line class="card" x1="903" y1="226" x2="917" y2="226"/>
<line class="card" x1="903" y1="232" x2="917" y2="232"/>
<rect class="rel-label-bg" x="932" y="324" width="108" height="24" rx="4" ry="4"/>
<text class="rel-label" x="944" y="340">id_localidade</text>
<circle class="card-circle" cx="910" cy="456" r="4"/>
<line class="card" x1="910" y1="460" x2="910" y2="466"/>
<line class="card" x1="910" y1="466" x2="903" y2="470"/>
<line class="card" x1="910" y1="466" x2="910" y2="470"/>
<line class="card" x1="910" y1="466" x2="917" y2="470"/>
</g>

<g id="rel_id_produto">
<path class="rel" d="M 1245 248 C 1245 360, 1152 536, 1045 656"/>
<line class="card" x1="1238" y1="258" x2="1252" y2="258"/>
<line class="card" x1="1238" y1="264" x2="1252" y2="264"/>
<rect class="rel-label-bg" x="1140" y="458" width="96" height="24" rx="4" ry="4"/>
<text class="rel-label" x="1152" y="474">id_produto</text>
<circle class="card-circle" cx="1061" cy="656" r="4"/>
<line class="card" x1="1057" y1="656" x2="1051" y2="656"/>
<line class="card" x1="1051" y1="656" x2="1045" y2="649"/>
<line class="card" x1="1051" y1="656" x2="1045" y2="656"/>
<line class="card" x1="1051" y1="656" x2="1045" y2="663"/>
</g>

<g id="rel_id_status">
<path class="rel" d="M 1580 216 C 1580 348, 1276 572, 1045 688"/>
<line class="card" x1="1573" y1="226" x2="1587" y2="226"/>
<line class="card" x1="1573" y1="232" x2="1587" y2="232"/>
<rect class="rel-label-bg" x="1440" y="404" width="84" height="24" rx="4" ry="4"/>
<text class="rel-label" x="1452" y="420">id_status</text>
<circle class="card-circle" cx="1061" cy="688" r="4"/>
<line class="card" x1="1057" y1="688" x2="1051" y2="688"/>
<line class="card" x1="1051" y1="688" x2="1045" y2="681"/>
<line class="card" x1="1051" y1="688" x2="1045" y2="688"/>
<line class="card" x1="1051" y1="688" x2="1045" y2="695"/>
</g>

<g id="dim_tempo">
<rect class="table-bg" x="60" y="110" width="270" height="234" rx="6" ry="6"/>
<rect class="table-header" x="60" y="110" width="270" height="42" rx="6" ry="6"/>
<text class="table-name" x="76" y="137">dim_tempo</text>
<text class="type" x="72" y="173">INT</text>
<text class="field" x="155" y="173">id_tempo</text>
<line class="row-line" x1="60" y1="184" x2="330" y2="184"/>
<text class="type" x="72" y="205">DATE</text>
<text class="field" x="155" y="205">data_pedido</text>
<line class="row-line" x1="60" y1="216" x2="330" y2="216"/>
<text class="type" x="72" y="237">INT</text>
<text class="field" x="155" y="237">ano</text>
<line class="row-line" x1="60" y1="248" x2="330" y2="248"/>
<text class="type" x="72" y="269">INT</text>
<text class="field" x="155" y="269">mes</text>
<line class="row-line" x1="60" y1="280" x2="330" y2="280"/>
<text class="type" x="72" y="301">INT</text>
<text class="field" x="155" y="301">trimestre</text>
<line class="row-line" x1="60" y1="312" x2="330" y2="312"/>
<text class="type" x="72" y="333">VARCHAR</text>
<text class="field" x="155" y="333">dia_semana</text>
</g>

<g id="dim_cliente">
<rect class="table-bg" x="395" y="110" width="270" height="106" rx="6" ry="6"/>
<rect class="table-header" x="395" y="110" width="270" height="42" rx="6" ry="6"/>
<text class="table-name" x="411" y="137">dim_cliente</text>
<text class="type" x="407" y="173">INT</text>
<text class="field" x="490" y="173">id_cliente</text>
<line class="row-line" x1="395" y1="184" x2="665" y2="184"/>
<text class="type" x="407" y="205">VARCHAR</text>
<text class="field" x="490" y="205">cliente_id</text>
</g>

<g id="dim_localidade">
<rect class="table-bg" x="775" y="110" width="270" height="106" rx="6" ry="6"/>
<rect class="table-header" x="775" y="110" width="270" height="42" rx="6" ry="6"/>
<text class="table-name" x="791" y="137">dim_localidade</text>
<text class="type" x="787" y="173">INT</text>
<text class="field" x="870" y="173">id_localidade</text>
<line class="row-line" x1="775" y1="184" x2="1045" y2="184"/>
<text class="type" x="787" y="205">CHAR</text>
<text class="field" x="870" y="205">uf</text>
</g>

<g id="dim_produto">
<rect class="table-bg" x="1110" y="110" width="270" height="138" rx="6" ry="6"/>
<rect class="table-header" x="1110" y="110" width="270" height="42" rx="6" ry="6"/>
<text class="table-name" x="1126" y="137">dim_produto</text>
<text class="type" x="1122" y="173">INT</text>
<text class="field" x="1205" y="173">id_produto</text>
<line class="row-line" x1="1110" y1="184" x2="1380" y2="184"/>
<text class="type" x="1122" y="205">VARCHAR</text>
<text class="field" x="1205" y="205">produto</text>
<line class="row-line" x1="1110" y1="216" x2="1380" y2="216"/>
<text class="type" x="1122" y="237">VARCHAR</text>
<text class="field" x="1205" y="237">categoria</text>
</g>

<g id="dim_status">
<rect class="table-bg" x="1445" y="110" width="270" height="106" rx="6" ry="6"/>
<rect class="table-header" x="1445" y="110" width="270" height="42" rx="6" ry="6"/>
<text class="table-name" x="1461" y="137">dim_status</text>
<text class="type" x="1457" y="173">INT</text>
<text class="field" x="1540" y="173">id_status</text>
<line class="row-line" x1="1445" y1="184" x2="1715" y2="184"/>
<text class="type" x="1457" y="205">VARCHAR</text>
<text class="field" x="1540" y="205">status</text>
</g>

<g id="fato_pedido">
<rect class="table-bg" x="775" y="470" width="270" height="362" rx="6" ry="6"/>
<rect class="table-header" x="775" y="470" width="270" height="42" rx="6" ry="6"/>
<text class="table-name" x="791" y="497">fato_pedido</text>
<text class="type" x="787" y="533">INT</text>
<text class="field" x="870" y="533">pedido_id</text>
<line class="row-line" x1="775" y1="544" x2="1045" y2="544"/>
<text class="type" x="787" y="565">INT</text>
<text class="field" x="870" y="565">id_tempo</text>
<line class="row-line" x1="775" y1="576" x2="1045" y2="576"/>
<text class="type" x="787" y="597">INT</text>
<text class="field" x="870" y="597">id_cliente</text>
<line class="row-line" x1="775" y1="608" x2="1045" y2="608"/>
<text class="type" x="787" y="629">INT</text>
<text class="field" x="870" y="629">id_localidade</text>
<line class="row-line" x1="775" y1="640" x2="1045" y2="640"/>
<text class="type" x="787" y="661">INT</text>
<text class="field" x="870" y="661">id_produto</text>
<line class="row-line" x1="775" y1="672" x2="1045" y2="672"/>
<text class="type" x="787" y="693">INT</text>
<text class="field" x="870" y="693">id_status</text>
<line class="row-line" x1="775" y1="704" x2="1045" y2="704"/>
<text class="type" x="787" y="725">INT</text>
<text class="field" x="870" y="725">qtd</text>
<line class="row-line" x1="775" y1="736" x2="1045" y2="736"/>
<text class="type" x="787" y="757">DECIMAL</text>
<text class="field" x="870" y="757">valor_unit</text>
<line class="row-line" x1="775" y1="768" x2="1045" y2="768"/>
<text class="type" x="787" y="789">DECIMAL</text>
<text class="field" x="870" y="789">desconto_pct</text>
<line class="row-line" x1="775" y1="800" x2="1045" y2="800"/>
<text class="type" x="787" y="821">DECIMAL</text>
<text class="field" x="870" y="821">avaliacao</text>
</g>
<text class="note" x="40" y="870">* Os campos id_* são chaves substitutas (surrogate keys) geradas no ETL; não existem no raw. desconto_pct é renomeado de desconto_% do raw para compatibilidade SQL.</text>
</svg>
